<?xml version="1.0" ?><svg enable-background="new 0 0 158.52 155.031" version="1.1" viewBox="0 0 158.52 155.031" xml:space="preserve" xmlns="http://www.w3.org/2000/svg" xmlns:xlink="http://www.w3.org/1999/xlink"><g id="icons"><g><path d="M157.232,91.393c0.685-7.616,0.475-28.952-0.679-36.511c-2.639-17.285-6.422-30.933-20.538-41.934    c-11.869-9.249-28.836-6.949-44.377-6.861c-13.484,0.075-52.995-4.404-65.174,2.38C6.89,19.366,8.246,37.094,9.486,58.596    c0.831,14.404-0.374,27.348-0.374,43.759c0,24.233,8.641,37.403,31.147,39.655c15.854,1.587,39.174,1.627,52.805,1.687    c12.325,0.052,27.064,0.027,38.352-5.291C143.91,132.52,154.335,123.595,157.232,91.393z" fill="#87C9FF"/><path d="M153.102,79.827c-0.036-6.35-0.56-12.675-0.775-19.017c-0.203-5.977,0.535-11.93,0.613-17.901    c0.155-11.805-0.11-23.849-9.138-32.607c-3.792-3.679-8.505-6.466-13.652-7.74c-3.5-0.867-7.127-0.851-10.711-0.972    c-4.285-0.145-8.569-0.262-12.855-0.36C95.888,0.986,85.16,1.224,74.477,0.908C62.174,0.543,49.909,0.655,37.612,1.322    c-5.558,0.302-11.627,0.099-16.96,1.858c-5.128,1.692-9.609,4.985-13.084,9.081c-3.505,4.131-6.106,9.042-6.507,14.519    c-0.422,5.775,0.074,11.695,0.303,17.472c0.311,7.824,0.944,15.751,0.169,23.562c-1.099,11.072-0.241,22.402,0.199,33.496    c0.252,6.339,0.568,12.675,1,19.004c0.382,5.604,0.673,11.005,3.256,16.115c2.608,5.157,6.812,9.324,11.79,12.21    c4.927,2.857,10.167,3.423,15.726,3.914c6.126,0.54,12.266,0.876,18.416,0.935c4.762,0.045,9.455-0.447,14.209-0.089    c19.909,1.498,40.21,1.105,60.113-0.576c10.395-0.878,19.801-8.309,23.708-17.888c2.345-5.751,2.04-12.034,2.216-18.13    c0.248-8.574,0.495-17.149,0.743-25.723C153.016,87.332,153.218,83.576,153.102,79.827z M146.819,79.654    c-0.299,9.387-0.597,18.774-0.889,28.161c-0.138,4.439-0.273,8.878-0.415,13.316c-0.078,2.431,0.007,4.943-0.455,7.337    c-1.047,5.427-4.457,10.699-8.612,14.273c-4.671,4.017-9.955,4.897-15.897,5.185c-6.671,0.323-13.353,0.211-20.025-0.013    c-7.968-0.267-15.931-0.647-23.902-0.835c-3.063-0.072-6.125-0.167-9.187-0.255c-4.704-0.136-9.315,0.464-14.009,0.458    c-7.414-0.008-14.852-0.395-22.261-0.723c-4.879-0.216-9.247-1.025-13.345-3.867c-4.738-3.285-8.347-8.326-9.569-13.994    c-1.492-6.921-1.192-14.467-1.462-21.543c-0.248-6.495,0.912-12.91,0.84-19.397C7.56,81.289,6.586,74.862,6.47,68.386    c-0.082-4.583,0.043-9.174,0.02-13.759c-0.025-4.951-0.079-9.903-0.073-14.854c0.009-7.551-0.629-15.776,3.369-22.545    c2.979-5.045,9.045-8.58,14.785-9.279c3.06-0.373,6.272-0.178,9.357-0.195C43.779,7.699,53.683,7.7,63.522,7.229    C69.473,6.943,75.35,6.593,81.31,6.682c12.959,0.193,25.87-0.962,38.819,0.046c4.6,0.358,8.967,0.839,13.139,2.998    c5.087,2.632,9.326,7.16,11.424,12.509c2.174,5.544,1.735,11.833,1.846,17.68c0.132,6.941,0.272,13.883,0.352,20.825    C146.963,67.042,147.06,73.355,146.819,79.654z"/><path d="M42.446,34.579l-0.458,72.338l87.068,0.551c3.314,0.021,6.094-2.649,6.038-5.962    c-0.117-6.876-0.833-20.619-0.826-27.496c0.01-9.716,1.246-38.843,1.246-38.843c0.021-3.314-2.648-6.017-5.962-6.038    c0,0-32.621-1.226-43.501-1.275c-9.394-0.042-37.567,0.762-37.567,0.762C45.171,28.596,42.467,31.265,42.446,34.579z" fill="#FFF399"/><polygon fill="#FFFFFF" points="23.396,42.458 22.907,119.796 118.987,118.404 119.464,43.066   "/><polygon fill="#C4E9FA" points="33.955,110.556 34.295,56.837 102.374,57.268 104.034,111   "/><polygon fill="#4BB964" points="86.797,89.88 107.034,111.019 34.955,110.563 56.424,88.698 56.941,89.201 64.087,97.697     71.123,90.521 78.077,97.785   "/><path d="M71.174,73.611l17.405,17.183c0,0-4.347,7.377-6.641,9.299c-1.15,0.964-3.899,1.729-4.937,0.645    c-1.49-1.557-3.96-6.213-3.96-6.213s-4.166,4.249-5.554,5.665c-1.238,1.263-5.379,1.238-6.433-0.182    c-1.596-2.15-5.852-8.971-5.852-8.971l-0.578-0.563L71.174,73.611z" fill="#FFFFFF"/><path d="M133.026,82.464c0.092-3.626,0.153-7.255,0.288-10.88c0.196-5.26,0.583-10.513,0.755-15.774    c0.163-4.999-0.323-9.977-0.552-14.966c-0.105-2.282,0.087-4.653-0.14-6.921c-0.374-3.735-4.872-2.661-7.692-2.552    c-2.17,0.084-4.334,0.238-6.506,0.223c-2.583-0.018-4.955-0.688-7.499-0.939c-2.733-0.27-5.584-0.168-8.323-0.195    c-5.277-0.051-10.554,0.042-15.83,0.138c-4.785,0.087-9.602,0.825-14.378,0.617c-5.038-0.219-10.05-0.937-15.095-1.031    c-4.061-0.076-8.123,0.329-12.173,0.584c-2.161,0.136-4.305,0.045-6.468-0.008c-1.471-0.036-4.264-0.65-5.592,0.29    c-1.427,1.01-0.969,3.597-1.011,5.059c-0.031,1.082-0.067,2.165-0.103,3.247c-0.018,0.542,0.081,1.591-0.073,2.165    c-0.331,1.232,0.22,0.835-1.058,1.05c-2.988,0.502-9.636-2.372-10.438,1.87c-0.913,4.83-0.511,10.424-0.609,15.338    c-0.095,4.772-0.254,9.587-0.101,14.358c0.243,7.576,0.786,15.059,0.76,22.647c-0.027,7.842-0.047,15.684-0.068,23.527    c-0.002,0.679-0.467,3.625-0.011,4.168c0.361,0.43,1.957,1.213,5.67,1.114c5.408-0.145,8.793-0.726,14.201-0.569    c12.54,0.362,25.008,0.903,37.557,0.772c7.565-0.079,15.081-0.781,22.655-0.742c5.004,0.026,9.978,0.272,14.976,0.468    c1.917,0.075,4.244,0.59,4.915-1.696c0.189-0.642,0.091-1.423,0.107-2.08c0.043-1.696-0.383-6.83,0.594-7.447    c0.887-0.56,4.182,0.086,5.374,0.118c2.508,0.066,5.705,0.708,6.157-2.57c0.307-2.231-0.171-4.817-0.271-7.075    c-0.12-2.721-0.249-5.441-0.339-8.163C132.547,91.842,132.827,87.214,133.026,82.464z M113.074,120.953    c-12.009,0.118-23.999,1.349-35.991,1.05c-6.129-0.153-12.254-0.435-18.384-0.543c-7.925-0.14-15.856,0.274-23.772,0.104    c-2.086-0.045-4.173-0.112-6.256-0.226c-0.804-0.044-2.281,0.114-3.02-0.205c-1.278-0.552-0.589,0.759-0.928-1.188    c-0.534-3.073,0.286-6.851,0.379-10.009c0.173-5.82,0.203-11.641,0.259-17.463c0.106-11.072,0.294-22.142,0.403-33.214    c0.02-2.047,0.039-4.093,0.055-6.14c0.007-0.789-0.472-5.786,0.046-6.145c0.669-0.463,3.518,0.022,4.342,0.027    c2.689,0.017,5.356,0.034,8.042,0.051c11.78,0.075,23.556,0.07,35.336-0.014c8.602-0.062,17.237-0.167,25.836,0.035    c3.68,0.086,7.32,0.721,11.003,0.729c1.625,0.003,3.257-0.043,4.881-0.103c2.092-0.077,1.89-0.172,1.992,1.785    c0.773,14.811,0.025,29.723-0.447,44.532c-0.162,5.085-0.367,10.178-0.295,15.267c0.03,2.093,0.128,4.185,0.112,6.278    c-0.01,1.287,0.238,3.122-0.105,4.403c-0.032,0.118,0.081,0.838-0.022,0.951C116.249,121.236,113.572,120.945,113.074,120.953z     M126.696,110.125c-0.864,0.014-4.376,0.136-4.898-0.5c-0.476-0.581,0.339-3.926,0.391-4.818    c0.249-4.297,0.186-8.629,0.223-12.933c0.041-4.811,0.045-9.661-0.106-14.473c-0.103-3.283-0.724-6.497-0.783-9.799    c-0.033-1.826-0.018-3.651-0.01-5.477c0.012-2.712,0.056-5.426,0.015-8.138c-0.042-2.79,0.442-6.289-0.186-9.002    c-0.705-3.048-6.394-1.75-8.885-1.786c-4.039-0.059-7.98-0.758-12.002-0.975c-12.085-0.652-24.276-0.168-36.379-0.106    c-8.817,0.045-17.605,0.398-26.418,0.522c0.112-1.939-0.042-3.981,0.19-5.911c0.174-1.444-0.084-1.188,1.632-1.216    c2.124-0.034,4.247-0.077,6.371-0.065c3.558,0.021,7.117,0.044,10.675,0.067c11.962,0.076,23.92,0.22,35.881,0.05    c5.787-0.082,11.574-0.142,17.362-0.088c2.825,0.026,5.554,0.766,8.38,0.699c3.749-0.088,7.454-0.768,11.209-0.86    c-0.105,8.244-0.359,16.375-0.812,24.595c-0.293,5.327,0.087,10.688-0.034,16.025c-0.099,4.371-0.113,8.657,0.122,13.03    c0.214,3.984,0.385,7.981,0.35,11.972c-0.018,2.031-0.091,4.061-0.133,6.091c-0.012,0.563,0.254,2.733-0.054,3.002    C128.491,110.298,127.051,110.136,126.696,110.125z"/><path d="M109.572,90.059c0.253-8.232,1.613-17.691,0.089-25.814c-0.303-1.895,0.473-6.386-0.741-7.946    c-1.495-1.921-7.494-0.772-9.788-0.881c-4.497-0.213-9.026-0.335-13.512-0.655c-6.812-0.485-13.254-0.727-20.064-0.502    c-5.71,0.188-11.412,0.398-17.125,0.436c-3.381,0.023-6.758,0.049-10.138,0.158c-0.922,0.03-2.259-0.205-3.141,0.101    c-2.749,0.954-1.64,4.852-1.709,7.248c-0.202,6.953-1.064,13.721-0.99,20.737c0.032,3.041,0.018,6.083,0.022,9.124    c0.004,2.526,0.008,5.052,0.011,7.578c0.005,3.37-0.81,8.123,0.285,11.239c1.227,3.496,9.815,1.567,13.296,1.742    c4.006,0.201,8.01,0.443,12.017,0.623c8.681,0.391,17.248,0.078,25.914-0.282c3.884-0.161,7.73-0.289,11.62-0.251    c3.269,0.032,8.073,0.889,11.238,0.075c3.369-0.866,2.196-7.139,2.291-9.89C109.297,98.62,109.441,94.339,109.572,90.059z     M37.884,59.043c0.323-0.446,4.217-0.263,4.81-0.281c2.222-0.066,4.454-0.082,6.677-0.052c4.18,0.056,8.357,0.226,12.535,0.37    c7.137,0.246,14.291,0.656,21.431,0.479c4.508-0.111,9.006,0.22,13.515,0.076c1.432-0.046,7.633-1.106,8.612-0.301    c0.407,0.335,0.421,4.175,0.48,4.788c0.204,2.124,0.413,4.246,0.193,6.38c-0.073,7.796-0.573,15.587-0.606,23.384    c-0.013,3.099,0.289,6.168,0.186,9.268c-0.034,1.017,0.087,2.505-0.069,3.698c-2.856-3.149-5.708-6.302-8.583-9.433    c-4.623-5.036-9.496-9.822-14.189-14.791c-2.087-2.21-4.035-4.52-5.978-6.855c-1.358-1.632-3.442-5.262-5.991-4.964    c-2.373,0.277-4.301,3.597-5.674,5.287c-2.045,2.516-4.036,5.035-6.303,7.359c-4.903,5.028-10.095,9.715-14.882,14.867    c-1.896,2.04-3.811,4.061-5.723,6.086c-0.227,0.241-0.52,0.512-0.846,0.805c-0.002-3.155-0.013-7.157-0.029-10.165    c-0.029-5.768-0.086-11.533-0.153-17.301c-0.059-5.132,0.797-10.189,0.735-15.29C38.027,61.911,37.598,59.438,37.884,59.043z     M82.989,89.172c-0.026,0.741-4.557,5.048-4.923,5.036c-0.119-0.004-0.671-0.635-0.701-0.654c-0.9-0.571-1.818-1.666-2.58-2.355    c-1.983-1.794-3.271-3.811-5.624-1.43c-1.194,1.209-2.231,2.461-3.617,3.455c-1.231,0.883-1.002,0.912-1.946,0.323    c-0.674-0.421-3.563-3.102-3.67-3.849c0,0,2.42-4.027,5.457-7.026c1.226-1.211,5.828-5.885,5.828-5.885s2.858,3.045,3.611,3.708    c1.379,1.215,2.701,2.473,3.959,3.813C79.477,85.044,82.989,89.172,82.989,89.172z M92.289,108.746    c-12.838-0.202-25.679-0.361-38.518-0.512c-2.987-0.035-5.973-0.066-8.96-0.093c-1.047-0.009-2.094-0.018-3.142-0.026    c0.901-0.859,1.765-1.754,2.602-2.587c4.069-4.049,7.853-8.363,11.858-12.475c1.915,2.115,3.712,4.621,5.869,6.482    c3.119,2.693,7.203-2.565,9.301-4.864c0.648,0.605,1.295,1.211,1.935,1.825c1.124,1.08,2.454,3.18,3.795,3.756    c1.951,0.838,3.626-1.123,4.701-2.519c0.801-1.041,1.455-2.165,2.358-3.129c0.323-0.345,1.628-1.923,1.628-1.923    c1.981,1.295,4.531,4.946,6.289,6.596c2.233,2.096,4.549,4.101,6.765,6.217c1.153,1.101,2.363,2.529,3.627,3.855    C99.303,109.681,95.192,108.791,92.289,108.746z"/></g></g><g id="Isolation_Mode"/><g id="Calque_1"/><g id="_x30_16_soundcloud"/><g id="Layer_1"/></svg>